<?xml version="1.0" encoding="UTF-8" standalone="no"?>
<!-- Created with Inkscape (http://www.inkscape.org/) -->

<svg
   version="1.1"
   id="svg1"
   width="1024"
   height="1024"
   viewBox="0 0 1024 1024"
   xmlns="http://www.w3.org/2000/svg"
   xmlns:svg="http://www.w3.org/2000/svg">
  <defs
     id="defs1" />
  <g
     id="g1"
     style="display:inline">
    <path
       style="fill:#000000;stroke-width:1.43393"
       d="m 370.95106,930.24378 c -4.63582,-0.66446 -11.22796,-2.84857 -14.64921,-4.85355 -6.4764,-3.79542 -13.49607,-11.70749 -13.47524,-15.1883 0.007,-1.10856 3.22916,-3.71794 7.16118,-5.79867 l 7.1491,-3.7831 5.42118,5.42117 c 9.43876,9.43876 23.80389,11.06653 31.32129,3.54913 8.04476,-8.04476 2.6428,-14.80802 -16.56249,-20.73621 -23.24199,-7.17421 -30.23096,-13.59116 -30.40203,-27.91367 -0.11572,-9.68316 3.01321,-15.59359 11.36079,-21.46049 5.22833,-3.67461 7.58121,-4.30187 18.23352,-4.86097 16.30563,-0.85583 23.95603,1.37155 31.86056,9.27606 3.3778,3.37782 6.14146,6.96974 6.14146,7.98207 0,1.01231 -2.94087,3.61694 -6.53525,5.78803 l -6.53526,3.94742 -4.61936,-4.89795 c -9.71152,-10.29721 -31.06383,-7.93617 -31.06383,3.4349 0,5.61161 3.67893,8.14277 18.78352,12.9234 7.41398,2.34654 16.04195,5.73201 19.17328,7.5233 15.49311,8.8628 17.58437,27.6326 4.53288,40.6841 -8.20624,8.20623 -21.04739,11.29234 -37.29609,8.96333 z m 484.43884,0.19817 c -8.40263,-1.25193 -15.48722,-4.54748 -21.22309,-9.87236 -3.84988,-3.57403 -8.86977,-11.45333 -7.86434,-12.34396 0.25532,-0.22616 3.81391,-2.09363 7.90798,-4.14993 l 7.44374,-3.73874 2.96227,4.16013 c 10.14258,14.24393 35.92269,12.72551 35.92269,-2.11581 0,-6.22809 -2.43904,-7.84784 -21.46587,-14.25543 -22.16726,-7.46519 -28.75324,-13.95718 -28.69817,-28.28863 0.0588,-15.31475 13.11431,-25.49835 32.68914,-25.49835 14.88745,0 21.2154,2.2325 29.38322,10.36643 3.78926,3.77352 6.49831,7.49403 6.0201,8.26778 -0.4782,0.77375 -3.66048,3.04246 -7.07172,5.04159 l -6.20227,3.63476 -4.9386,-4.93859 c -9.74698,-9.74699 -28.02686,-8.40901 -30.59116,2.2391 -1.39224,5.78122 2.8287,8.88461 18.88385,13.88409 23.38238,7.28112 32.06653,15.27305 32.06653,29.5105 0,19.74781 -19.58726,31.91718 -45.2243,28.09742 z m -598.61246,-47.70787 10e-4,-46.96128 h 32.98044 32.98044 v 8.60359 8.6036 h -23.65988 -23.65988 v 10.75449 10.75449 h 19.35808 19.35809 v 7.88663 7.88663 h -19.35809 -19.35808 v 10.75449 10.75449 h 24.37685 24.37685 v 8.55308 8.55307 l -33.69859,0.409 -33.69858,0.409 z m 383.79094,46.20615 c -6.00535,-1.80006 -12.92822,-6.93506 -16.62692,-12.33297 -6.47508,-9.44974 -7.11642,-13.75455 -7.18291,-48.2125 l -0.063,-32.62196 h 9.2013 9.2013 l 0.48326,31.90499 c 0.41134,27.15693 0.85949,32.59492 3.01139,36.541 3.30986,6.0695 9.23449,8.98635 18.25285,8.98635 9.01661,0 14.94064,-2.91567 18.25836,-8.98635 2.16186,-3.95569 2.60073,-9.31792 2.99071,-36.541 l 0.45705,-31.90499 h 9.31431 9.31432 l -0.45081,34.77286 c -0.42032,32.42184 -0.66005,35.16065 -3.54583,40.50858 -7.3053,13.53826 -18.28245,19.33928 -36.33811,19.20335 -6.70363,-0.0505 -14.02843,-0.64329 -16.27734,-1.31736 z m 155.51107,0.0381 -10.61218,-0.71697 -9.22084,-14.6978 -9.22086,-14.69781 h -8.48713 -8.48713 v 15.05629 15.05629 h -10.03752 -10.03753 v -46.6028 -46.6028 h 23.74188 c 13.20004,0 26.66242,0.73541 30.31942,1.65625 8.92317,2.24687 18.20559,11.22707 20.52086,19.85274 3.78123,14.08715 -1.57903,30.0544 -11.8415,35.27371 -2.56652,1.30528 -4.85885,2.5374 -5.09406,2.73804 -0.23521,0.20063 4.14963,7.61266 9.7441,16.47116 5.59447,8.8585 9.98117,16.51684 9.74822,17.01851 -0.23295,0.50169 -5.19903,0.58952 -11.03573,0.19519 z m -14.37133,-51.51126 c 3.28729,-3.28728 4.1915,-5.47642 4.1915,-10.14783 0,-4.67141 -0.90421,-6.86055 -4.1915,-10.14782 -4.04914,-4.04915 -4.65786,-4.1915 -17.92415,-4.1915 h -13.73266 v 14.33932 14.33932 h 13.73266 c 13.26629,0 13.87501,-0.14239 17.92415,-4.19149 z m -636.77622,4.90622 v -46.83281 l 25.4523,0.493 c 22.84373,0.44247 26.20163,0.83032 32.76366,3.78427 9.17112,4.12848 18.12525,13.16869 22.26862,22.48273 4.71753,10.60469 5.33263,27.62847 1.3771,38.11299 -4.05403,10.7456 -11.39108,18.94396 -21.31496,23.81718 -7.94158,3.89979 -9.0582,4.04606 -34.37745,4.50308 l -26.16927,0.47236 z m 51.96108,25.32933 c 8.62897,-5.333 11.84891,-12.02079 11.84891,-24.61012 0,-14.19609 -3.8389,-21.38389 -14.17054,-26.53235 -5.81561,-2.89805 -9.31673,-3.58023 -18.37448,-3.58023 h -11.18991 v 29.56665 29.56665 l 13.31718,-0.58245 c 10.6573,-0.46611 14.36611,-1.23073 18.56884,-3.82815 z M 483.33992,881.59829 V 834.2182 l 11.06241,0.41881 11.0624,0.4188 8.7551,15.77325 c 4.8153,8.67529 11.37329,20.53513 14.57331,26.35519 l 5.81821,10.58193 14.69645,-26.77282 14.69644,-26.7728 9.91857,0.41761 9.91856,0.41764 0.29538,46.96168 0.29539,46.9617 -9.73441,-4.2e-4 -9.73441,-4e-4 0.41385,-30.11396 c 0.22761,-16.56267 0.0912,-30.1004 -0.30312,-30.08382 -0.39433,0.0166 -6.84702,11.07239 -14.33932,24.56849 -7.4923,13.49609 -14.30289,25.48069 -15.13464,26.63245 -1.18841,1.64563 -4.87101,-3.83716 -17.19548,-25.60134 -8.62577,-15.2325 -15.87091,-26.72078 -16.10032,-25.5295 -0.22943,1.19127 -0.2347,15.20797 -0.0115,31.14822 l 0.40519,28.98228 -9.67904,-10e-4 -9.67904,-10e-4 z M 301.70723,793.04391 c -14.3917,-5.12008 -24.58814,-16.4163 -27.63286,-30.61332 -0.85255,-3.97532 -1.5225,-23.47338 -1.5225,-44.31081 v -37.21166 h 12.10414 12.10414 l 0.44277,39.07465 c 0.40843,36.04415 0.66519,39.45132 3.31063,43.93124 4.53784,7.68462 11.0281,10.45081 23.22866,9.90023 12.0287,-0.54285 16.77058,-3.21984 21.22324,-11.98148 2.61049,-5.13676 2.90951,-9.02121 3.3319,-43.28392 l 0.46405,-37.64072 h 11.36589 11.36591 V 720.081 c 0,45.10317 -0.76238,49.60796 -10.21249,60.34385 -3.25819,3.7015 -9.22992,8.44378 -13.27052,10.5384 -6.40576,3.3207 -9.3664,3.86656 -23.11979,4.26262 -12.52171,0.36059 -17.30075,-0.0892 -23.18317,-2.18196 z m -131.91243,-55.49547 22.99879,-56.64032 12.27596,0.0287 12.27593,0.0287 20.69454,51.9513 c 11.382,28.57321 21.55365,54.04842 22.60368,56.61158 l 1.90914,4.66028 h -12.8035 -12.80348 l -4.22912,-11.11298 -4.22912,-11.11297 -23.68446,-0.39238 -23.68444,-0.3924 -4.08797,11.50537 -4.08797,11.50549 h -13.07339 -13.0734 z m 51.13551,13.25249 c 0,-0.20343 -3.54898,-10.30293 -7.88662,-22.44335 -4.33765,-12.14041 -7.93467,-22.45959 -7.99336,-22.93153 -0.0587,-0.47192 -1.59921,3.3362 -3.42331,8.46251 -1.82412,5.12631 -5.58964,15.61194 -8.36783,23.3014 l -5.05124,13.98084 h 16.36118 c 8.99866,0 16.36118,-0.16644 16.36118,-0.36987 z m 239.1408,-13.29972 0.39109,-56.88184 29.72149,0.62509 c 32.38203,0.68105 36.22566,1.45285 49.42889,9.92532 8.54704,5.48464 17.59845,17.84727 20.78949,28.39481 3.57057,11.802 3.08531,30.08978 -1.08599,40.92677 -4.52563,11.7576 -17.46872,24.74902 -29.37337,29.48309 -7.9496,3.16129 -10.94704,3.45888 -39.43313,3.91498 l -30.82955,0.49362 z m 61.30954,30.78999 c 10.0347,-5.16403 15.47517,-14.23914 16.19725,-27.01822 0.73165,-12.94828 -1.6132,-20.6244 -8.62337,-28.22954 -7.31932,-7.94051 -15.65241,-10.62634 -32.96948,-10.62634 h -12.64513 v 34.89235 c 0,19.1908 0.26742,35.16122 0.59427,35.48982 0.32685,0.32862 7.28795,0.27113 15.46911,-0.12776 12.21803,-0.5957 16.14339,-1.37807 21.97735,-4.38032 z m 63.76845,-30.74276 v -56.64032 h 41.58404 41.58403 v 10.75449 10.75449 h -29.39561 -29.39561 v 12.90539 12.90539 h 24.73533 24.73534 v 10.03753 10.03752 h -24.73534 -24.73533 v 12.18843 12.18842 h 30.11258 30.11258 v 10.75449 10.7545 h -42.301 -42.30101 z m 107.54492,0 v -56.64032 h 12.94431 12.94431 l -0.3974,45.88655 -0.3974,45.88656 28.32016,-7.3e-4 28.32016,-7.2e-4 v 10.75449 10.7545 h -40.86707 -40.86707 z m 101.04172,45.52735 c 2.6122,-6.11214 13.01996,-31.60028 23.12837,-56.64032 l 18.37891,-45.52735 h 12.50521 12.50521 l 21.78266,54.84791 c 11.98046,30.16635 22.09857,55.65449 22.48469,56.64032 0.52991,1.35296 -2.45389,1.79242 -12.16993,1.79242 h -12.87195 l -4.18097,-11.11298 -4.18098,-11.11297 -23.79829,-0.39239 -23.7983,-0.39239 -4.08797,11.50537 -4.08797,11.50536 h -13.17906 -13.17905 z m 69.59622,-32.39806 c 0,-0.43004 -13.07383,-38.18538 -15.22196,-43.95883 -0.44016,-1.183 -4.24274,7.66934 -8.45017,19.67187 -4.20744,12.00253 -8.06111,22.48816 -8.56373,23.3014 -0.6075,0.98298 4.64226,1.47863 15.66101,1.47863 9.11617,0 16.57485,-0.22189 16.57485,-0.49307 z m -467.46191,-6.67659 v -10.03753 h 21.50898 21.50899 v 10.03753 10.03752 h -21.50899 -21.50898 z m 439.85871,-76.46035 c -5.32347,-3.28153 -9.67904,-6.30509 -9.67904,-6.71902 0,-0.41394 3.55043,-2.87621 7.88984,-5.47173 l 7.88983,-4.71911 10.03432,8.25491 c 5.51888,4.54022 10.03432,8.71086 10.03432,9.26808 0,1.10228 -12.45357,5.65697 -14.95325,5.46891 -0.84533,-0.0637 -5.89254,-2.80052 -11.21602,-6.08204 z M 290.83451,604.79485 c -2.24483,-1.30749 -2.50938,-4.22051 -2.50938,-27.63128 0,-18.44231 0.5081,-26.67781 1.72072,-27.89043 1.93377,-1.93377 99.50988,-2.52767 102.40952,-0.62332 1.99209,1.30832 3.52621,52.11528 1.67358,55.42576 -1.1201,2.00151 -7.11702,2.26294 -51.02716,2.22446 -31.12069,-0.0272 -50.69781,-0.59106 -52.26728,-1.50519 z m 120.9521,-0.42943 c -1.13731,-1.37038 -1.52172,-10.29274 -1.25103,-29.03713 l 0.39076,-27.0589 37.69489,-0.38241 c 28.35854,-0.28767 37.82983,-0.82042 38.23963,-2.15089 0.2996,-0.97267 0.8585,-4.50649 1.24199,-7.85293 l 0.69728,-6.08445 -99.16205,-0.36825 -99.16205,-0.36826 -0.38874,-27.4025 c -0.30494,-21.49468 0.0247,-27.74555 1.52843,-28.99363 1.36202,-1.13038 31.9153,-1.62986 105.51366,-1.72493 56.97808,-0.0736 103.39495,-0.58016 103.14863,-1.12568 -0.24633,-0.54551 -1.66477,-4.05386 -3.15207,-7.7963 l -2.7042,-6.80447 h -41.10243 c -30.05665,0 -41.56486,-0.46243 -42.82315,-1.72072 -1.20572,-1.20572 -1.72072,-9.1453 -1.72072,-26.52775 0,-32.83227 -2.34424,-30.54275 31.27281,-30.54275 h 25.53707 l 2.27953,-7.12822 2.2795,-7.12823 -89.52852,-0.39992 c -73.79322,-0.32963 -89.7411,-0.74405 -90.73808,-2.35791 -1.70437,-2.75896 -0.17483,-53.53853 1.68108,-55.81083 1.20826,-1.47934 20.95073,-1.76382 99.51248,-1.43393 53.90283,0.22633 98.00498,0.2599 98.00475,0.0746 -2.3e-4,-0.18531 -1.99157,-3.57298 -4.4252,-7.52815 l -4.4248,-7.19118 h -32.74017 c -18.00709,0 -33.76085,-0.39167 -35.00834,-0.87039 -1.95636,-0.75072 -2.26818,-4.55547 -2.26818,-27.67489 0,-18.93603 0.50512,-27.30962 1.72072,-28.52523 1.2256,-1.22559 10.11708,-1.72072 30.90075,-1.72072 32.17715,0 35.73937,-0.76646 39.76783,-8.55666 1.19635,-2.31346 2.17518,-4.56099 2.17518,-4.99448 0,-0.43349 -43.533,-0.78818 -96.73998,-0.78818 -94.17641,0 -96.7793,-0.0736 -98.22436,-2.7736 -0.86049,-1.60783 -1.48438,-13.28651 -1.48438,-27.78609 0,-20.58849 0.38405,-25.33125 2.1713,-26.81454 1.69785,-1.40908 22.41235,-1.77132 94.99801,-1.66124 51.05469,0.0774 100.78045,-0.47758 110.50166,-1.23338 11.95613,-0.92954 18.56752,-0.89649 20.43354,0.10224 2.53971,1.35921 2.75858,3.23692 2.75858,23.6655 v 22.18915 l -14.29442,28.56165 -14.29445,28.56164 14.42928,21.84643 c 7.9361,12.01553 14.73312,22.63829 15.10452,23.60612 0.54553,1.42164 -13.33258,38.84673 -26.17958,70.59848 l -2.48775,6.1485 4.76578,11.77565 c 5.06304,12.51016 25.81264,53.46257 30.55612,60.30703 3.24615,4.68393 3.66815,2.57638 -10.69863,53.43018 -5.65201,20.00633 -7.11001,27.16194 -6.3547,31.18803 0.5391,2.87367 1.51964,5.22486 2.17895,5.22486 2.98884,0 9.85051,-12.42865 27.38458,-49.60221 10.38181,-22.0102 18.92291,-40.70706 18.98023,-41.54856 0.0574,-0.8415 -6.13339,-17.45028 -13.75712,-36.9084 -7.62375,-19.45817 -13.86135,-36.05827 -13.86135,-36.88917 0,-0.83089 2.7782,-4.5481 6.17378,-8.26046 3.39559,-3.71237 10.62917,-12.55718 16.07462,-19.65514 5.44545,-7.09797 15.08869,-19.44444 21.4294,-27.43659 6.34072,-7.99216 14.09312,-17.82771 17.22754,-21.85676 9.51225,-12.22721 5.16938,-11.64877 87.45914,-11.64877 47.33704,0 73.616,0.51719 75.42322,1.48437 2.59974,1.39135 2.77359,3.27572 2.77359,30.06214 0,26.78641 -0.17385,28.67078 -2.77359,30.06213 -1.82025,0.97417 -31.51573,1.48818 -86.39442,1.49542 l -83.62082,0.0115 -3.58483,6.08317 c -1.97166,3.34575 -3.79992,6.56712 -4.06281,7.15862 -0.26289,0.5915 12.75105,1.07545 28.91985,1.07545 16.16881,0 30.41851,0.39166 31.666,0.87038 1.9597,0.75201 2.26818,4.62846 2.26818,28.50306 0,20.36036 -0.47172,28.02245 -1.79242,29.11363 -1.0596,0.87547 -13.90904,1.68007 -31.42908,1.968 -16.30018,0.26787 -30.10531,0.95662 -30.67809,1.53054 -0.57277,0.5739 0.0407,3.87685 1.36322,7.33988 l 2.40462,6.2964 87.59587,0.21037 c 48.17771,0.11572 88.16342,0.56112 88.85709,0.98984 2.03014,1.25471 1.59775,56.15636 -0.45224,57.42334 -1.49633,0.92477 -48.96406,1.46543 -163.96547,1.86759 l -31.60627,0.11013 -3.69302,7.52814 -3.69302,7.52815 h 43.18592 43.18592 l 0.71697,32.16442 c 0.56835,25.49722 0.3242,32.5565 -1.17788,34.05589 -2.8779,2.8728 -224.28816,2.78805 -226.67404,-0.0867 z m 244.42344,-1.20871 c -1.84078,-2.62808 -2.2322,-8.2466 -2.2322,-32.04123 0,-26.21756 0.24159,-29.07293 2.64367,-31.24679 2.37722,-2.15135 7.5439,-2.35441 51.26308,-2.01466 l 48.61941,0.37783 0.38639,32.08293 c 0.27049,22.45924 -0.10483,32.67473 -1.25102,34.05589 -1.32991,1.60243 -10.61073,1.97296 -49.41727,1.97296 -47.74881,0 -47.78129,-0.001 -50.01206,-3.18693 z M 292.26844,457.18513 c -2.24693,-1.38509 -2.50938,-4.3837 -2.50938,-28.66989 0,-25.34815 0.18149,-27.22014 2.7736,-28.6074 1.75056,-0.93687 20.16096,-1.48437 49.91356,-1.48437 38.41743,0 47.655,0.37609 49.92341,2.03257 2.54463,1.85817 2.82174,4.23603 3.22968,27.71328 0.38488,22.1495 0.13077,25.94247 -1.8476,27.58441 -3.02056,2.50684 -97.57517,3.84053 -101.48327,1.4314 z m 363.43013,-11.72869 c -2.63092,-2.63092 -2.40985,-54.71349 0.24158,-56.91397 1.40066,-1.16245 16.07241,-1.5205 51.26307,-1.25102 l 49.30079,0.37752 0.39006,27.77672 c 0.27067,19.27516 -0.11228,28.38192 -1.25104,29.75409 -2.24052,2.69967 -97.25746,2.94367 -99.94446,0.25666 z M 290.39822,307.6831 c -0.3876,-1.01012 -0.52867,-14.07683 -0.31347,-29.03713 l 0.39128,-27.20056 50.73532,-0.37704 c 36.25138,-0.26939 51.29532,0.0878 52.69701,1.25104 2.64871,2.19824 2.86874,52.85177 0.24097,55.47954 -2.5755,2.5755 -102.76126,2.46362 -103.75111,-0.11586 z M 589.69,288.01068 c 0.43506,-1.18299 1.95827,-8.38996 3.38491,-16.0155 3.05941,-16.35289 2.50784,-17.89639 -9.4706,-26.50204 -6.64072,-4.77088 -6.96783,-5.28341 -4.59487,-7.19938 2.32751,-1.8793 2.26514,-1.92232 -0.70115,-0.4835 -1.79078,0.86864 -3.96886,1.13876 -4.84016,0.60028 -0.8713,-0.5385 10.27294,-5.29804 24.76498,-10.57677 30.10074,-10.96424 39.2386,-15.30531 47.02509,-22.33993 7.5832,-6.85097 9.49793,-11.84451 7.2277,-18.84954 -2.98992,-9.2257 -9.28505,-20.70224 -17.94011,-32.70629 -14.39057,-19.95887 -25.11245,-36.87004 -31.81956,-50.18763 -5.80007,-11.516583 -13.27533,-29.413691 -13.27533,-31.783522 0,-0.48867 3.7103,-0.494908 8.24511,-0.01434 21.25841,2.255117 47.60965,12.437669 63.16695,24.408739 13.57943,10.449143 29.80436,28.840213 42.62535,48.316153 6.66628,10.12651 13.2019,18.52161 14.73031,18.92131 3.72213,0.97335 9.273,-1.55384 20.36123,-9.27005 14.86494,-10.34435 21.05853,-12.95671 32.48914,-13.70328 12.87895,-0.84118 19.95884,1.43906 32.00733,10.30866 4.96558,3.65546 11.97719,7.3888 15.58134,8.29634 l 6.55301,1.65006 -8.54255,2.40976 c -18.32386,5.16892 -23.96505,9.9328 -37.31796,31.51437 -10.96301,17.71891 -26.60334,33.488 -40.21577,40.54688 -14.65974,7.60196 -26.56217,10.0551 -46.44037,9.57158 -44.29317,-1.07743 -49.05468,-0.85491 -56.03077,2.61846 -3.66153,1.82306 -15.66311,11.96036 -27.1622,22.94292 -11.33115,10.82216 -20.24612,18.70876 -19.81105,17.52576 z m 114.86125,-45.39247 c -0.97081,-0.39278 -2.90662,-0.41669 -4.3018,-0.0532 -1.39517,0.36356 -0.60086,0.68493 1.76513,0.71416 2.36599,0.0293 3.50749,-0.26823 2.53667,-0.66103 z"
       id="path1" />
  </g>
</svg>
